<?xml version="1.0" standalone="no"?><!DOCTYPE svg PUBLIC "-//W3C//DTD SVG 1.1//EN" "http://www.w3.org/Graphics/SVG/1.1/DTD/svg11.dtd"><svg t="1735049960382" class="icon" viewBox="0 0 1024 1024" version="1.1" xmlns="http://www.w3.org/2000/svg" p-id="12488" xmlns:xlink="http://www.w3.org/1999/xlink" width="200" height="200"><path d="M527.261903 131.694433l95.486884 293.912672a24.924266 24.924266 0 0 0 23.703314 17.219636h309.027218a24.924266 24.924266 0 0 1 14.651427 45.048927L720.088151 669.418633a24.924266 24.924266 0 0 0-9.051888 27.829291l95.486885 293.912671a24.924266 24.924266 0 0 1-38.312639 27.829291l-250.000493-181.627169a24.924266 24.924266 0 0 0-29.471261 0L238.906669 1019.116191a24.924266 24.924266 0 0 1-38.312639-27.82929L296.165118 697.374229a24.924266 24.924266 0 0 0-9.136091-27.955596L37.028534 487.875668a24.924266 24.924266 0 0 1 14.651427-45.048927h309.027218a24.924266 24.924266 0 0 0 23.871721-17.219636l95.486884-293.912672a24.924266 24.924266 0 0 1 47.196119 0z" fill="#FAB237" p-id="12489"></path><path d="M241.559082 293.323246m-16.84072 0a16.84072 16.84072 0 1 0 33.681441 0 16.84072 16.84072 0 1 0-33.681441 0Z" fill="#FAB237" p-id="12490"></path><path d="M241.559082 16.84072m-16.84072 0a16.84072 16.84072 0 1 0 33.681441 0 16.84072 16.84072 0 1 0-33.681441 0Z" fill="#FAB237" p-id="12491"></path><path d="M363.654305 150.177124m-16.840721 0a16.84072 16.84072 0 1 0 33.681441 0 16.84072 16.84072 0 1 0-33.681441 0Z" fill="#4585F9" p-id="12492"></path><path d="M750.990872 327.004687m-16.84072 0a16.84072 16.84072 0 1 0 33.681441 0 16.84072 16.84072 0 1 0-33.681441 0Z" fill="#F45A56" p-id="12493"></path><path d="M980.445687 251.221446m-16.84072 0a16.84072 16.84072 0 1 0 33.68144 0 16.84072 16.84072 0 1 0-33.68144 0Z" fill="#4585F9" p-id="12494"></path><path d="M784.672313 112.285503m-16.84072 0a16.84072 16.84072 0 1 0 33.68144 0 16.84072 16.84072 0 1 0-33.68144 0Z" fill="#F45A56" p-id="12495"></path><path d="M43.554313 196.489105m-16.84072 0a16.84072 16.84072 0 1 0 33.68144 0 16.84072 16.84072 0 1 0-33.68144 0Z" fill="#F45A56" p-id="12496"></path><path d="M200.679127 177.592339l55.649862 45.874206-7.712651 9.356194-55.649862-45.874206 7.712651-9.356194Z" fill="#F45A56" p-id="12497"></path><path d="M197.10393 229.202205l45.874206-55.649862 9.356194 7.712651-45.874206 55.649862-9.356194-7.712651Z" fill="#F45A56" p-id="12498"></path><path d="M709.63547 211.552209l45.593775-20.461967 3.430439 7.643775-45.593775 20.461967-3.430439-7.643775Z" fill="#FAB237" p-id="12499"></path><path d="M740.539945 229.679524l-20.461967-45.593774 7.643775-3.43044 20.461968 45.593775-7.643776 3.430439Z" fill="#FAB237" p-id="12500"></path><path d="M595.250557 38.553718l35.030769-15.72141 2.637474 5.876872-35.030769 15.721411-2.637474-5.876873Z" fill="#4585F9" p-id="12501"></path><path d="M619.031101 52.547572l-15.72141-35.030769 5.876872-2.637473 15.721411 35.030769-5.876873 2.637473Z" fill="#4585F9" p-id="12502"></path><path d="M36.156559 360.248295l26.369717-4.138819 0.691979 4.408817-26.369717 4.138819-0.691979-4.408817Z" fill="#4585F9" p-id="12503"></path><path d="M49.557858 373.931989l-4.138818-26.369717 4.408817-0.691979 4.138818 26.369717-4.408817 0.691979Z" fill="#4585F9" p-id="12504"></path></svg>